<?xml version="1.0" encoding="utf-8"?>
<!-- Generator: Adobe Illustrator 28.2.0, SVG Export Plug-In . SVG Version: 6.00 Build 0)  -->
<svg version="1.1" id="Layer_1" xmlns="http://www.w3.org/2000/svg" xmlns:xlink="http://www.w3.org/1999/xlink" x="0px" y="0px"
	 viewBox="0 0 330 90" style="enable-background:new 0 0 330 90;" xml:space="preserve">
<style type="text/css">
	.st0{fill:#FFFFFF;}
	.st1{fill-rule:evenodd;clip-rule:evenodd;fill:#FFFFFF;}
</style>
<g>
	<g>
		<path class="st0" d="M63.4,35.1c0-2.1,1.6-3.8,4-3.8c2.4,0,4,1.7,4,3.8c0,2.1-1.6,3.7-4,3.7C65,38.9,63.4,37.2,63.4,35.1z
			 M64,41.2h6.8v18.6H64V41.2z"/>
		<path class="st0" d="M93.1,48.1H82.5v11.7h-6.8V31.4h6.8v11.2h10.6V31.4h6.8v28.5h-6.8V48.1z"/>
		<path class="st0" d="M121.8,36.9h-10.3v5.8h9.1v5.4h-9.1v6.2h10.3v5.6h-17.1V31.4h17.1V36.9z"/>
		<path class="st0" d="M143.6,54.8h-10.4l-1.7,5h-7.1l10.1-28.5h7.9l10.1,28.5h-7.2L143.6,54.8z M138.4,39.1L135,49.5h6.9
			L138.4,39.1z"/>
		<path class="st0" d="M162.3,31.4v23.1h8.9v5.4h-15.7V31.4H162.3z"/>
		<path class="st0" d="M172.9,31.4h21.6v5.6h-7.4v22.9h-6.8V36.9h-7.4V31.4z"/>
		<path class="st0" d="M215.2,48.1h-10.6v11.7h-6.8V31.4h6.8v11.2h10.6V31.4h6.8v28.5h-6.8V48.1z"/>
		<path class="st0" d="M239.8,31.1c6.6,0,11.6,3.8,13.2,10h-7.5c-1.2-2.4-3.3-3.7-5.8-3.7c-4.2,0-7,3.2-7,8.2s2.9,8.2,7,8.2
			c2.6,0,4.7-1.2,5.8-3.7h7.5c-1.6,6.2-6.6,9.9-13.2,9.9c-8.2,0-14-6-14-14.5S231.5,31.1,239.8,31.1z"/>
		<path class="st0" d="M274.5,54.8h-10.4l-1.7,5h-7.1l10.1-28.5h7.9l10.1,28.5h-7.2L274.5,54.8z M269.3,39.1l-3.4,10.4h6.9
			L269.3,39.1z"/>
		<path class="st0" d="M297.8,31.4c6.8,0,10.2,4,10.2,9c0,3.6-1.9,6.9-6.2,8.2l6.4,11.3h-7.7l-5.8-10.7h-1.6v10.7h-6.8V31.4H297.8z
			 M297.4,37.1h-4.2v7.1h4.2c2.5,0,3.7-1.3,3.7-3.6C301.1,38.5,299.9,37.1,297.4,37.1z"/>
		<path class="st0" d="M329.3,36.9h-10.3v5.8h9.1v5.4h-9.1v6.2h10.3v5.6h-17.1V31.4h17.1V36.9z"/>
	</g>
	<polygon class="st0" points="9.6,58 8.1,58 7.1,53.8 11,53.8 	"/>
	<polygon class="st0" points="16.2,53.1 11.9,66.5 10.3,66.5 8.4,59.2 10.5,59.2 10.7,58.4 12.1,54.1 12.5,53.1 	"/>
	<path class="st0" d="M53.8,45.7L35.6,65.9c-0.3,0.4-0.8,0.6-1.3,0.6H23.3l4.3-13.4h13.6L45,41.7H31.4L35.8,28H24.4l-4.4,13.6h-6.3
		l3.2-9.9l6.9-7.6c0.3-0.4,0.8-0.6,1.3-0.6h22.6c0.8,0,1.5,0.6,1.7,1.3l4.8,19.2C54.4,44.7,54.2,45.3,53.8,45.7z"/>
	<polygon class="st0" points="7.3,41.7 13.6,41.7 11.6,47.9 5.3,47.9 	"/>
	<polygon class="st0" points="14.4,33.5 12.7,38.6 7.6,38.6 9.3,33.5 	"/>
	<polygon class="st0" points="1,39.9 5,39.9 3.7,43.9 -0.3,43.9 	"/>
	<polygon class="st1" points="10.3,51.2 13.6,51.2 14.7,47.9 11.4,47.9 	"/>
	<g>
		<polygon class="st0" points="11,53.8 9.6,58 5.4,58 6.7,53.8 		"/>
	</g>
	<polygon class="st0" points="5.2,52 2.6,52 1.8,54.6 4.4,54.6 	"/>
</g>
</svg>
