<?xml version="1.0" encoding="utf-8"?>
<!-- Generator: Adobe Illustrator 28.2.0, SVG Export Plug-In . SVG Version: 6.00 Build 0)  -->
<svg version="1.1" id="Layer_1" xmlns="http://www.w3.org/2000/svg" xmlns:xlink="http://www.w3.org/1999/xlink" x="0px" y="0px"
	 viewBox="0 0 75.2 67.6" style="enable-background:new 0 0 75.2 67.6;" xml:space="preserve">
<style type="text/css">
	.st0{fill:#AC8F60;}
</style>
<g>
	<g>
		<g>
			<g>
				<path class="st0" d="M5.2,47.5c0,0.5,0.1,1,0.2,1.3s0.4,0.7,0.6,1c0.3,0.3,0.5,0.5,0.9,0.6s0.7,0.2,1,0.2c0.3,0,0.5,0,0.8-0.1
					c0.2-0.1,0.5-0.2,0.7-0.4s0.4-0.3,0.6-0.6c0.2-0.2,0.4-0.4,0.5-0.7l0.8,0.6c-0.2,0.3-0.4,0.5-0.6,0.8c-0.2,0.3-0.5,0.5-0.8,0.7
					c-0.3,0.2-0.6,0.4-1,0.5c-0.4,0.1-0.7,0.2-1.1,0.2c-0.7,0-1.3-0.1-1.9-0.3c-0.6-0.2-1.1-0.5-1.5-0.8c-0.4-0.4-0.7-0.8-1-1.3
					s-0.3-1.1-0.3-1.7c0-0.6,0.1-1.1,0.3-1.6s0.5-0.9,0.9-1.3c0.4-0.4,0.9-0.6,1.4-0.8c0.6-0.2,1.2-0.3,1.8-0.3
					c0.4,0,0.9,0.1,1.2,0.2s0.7,0.3,1,0.4c0.3,0.2,0.6,0.4,0.8,0.7c0.2,0.3,0.5,0.5,0.6,0.9l-0.8,0.6c-0.2-0.2-0.3-0.5-0.5-0.7
					c-0.2-0.2-0.4-0.4-0.6-0.5c-0.2-0.2-0.4-0.3-0.7-0.4c-0.2-0.1-0.5-0.1-0.8-0.1c-0.4,0-0.7,0.1-1,0.2S6.2,44.9,6,45.2
					c-0.2,0.3-0.4,0.6-0.6,1C5.3,46.5,5.2,47,5.2,47.5z"/>
				<path class="st0" d="M17.2,43.4l3.7,8h-2l-1-2.1h-3l-1,2.1h-1.3l3.8-8H17.2z M15.3,48.5h2.3L16.5,46L15.3,48.5z"/>
				<path class="st0" d="M22.6,43.6h1.2l4.4,5v-5h1.2v7.9h-0.8L23.8,46v5.4h-1.2V43.6z"/>
				<path class="st0" d="M35.7,43.4l3.7,8h-2l-1-2.1h-3l-1,2.1h-1.3l3.8-8H35.7z M33.8,48.5h2.3L35,46L33.8,48.5z"/>
				<path class="st0" d="M41.1,43.6h2.8c0.7,0,1.4,0.1,2,0.3c0.6,0.2,1.1,0.4,1.6,0.7c0.4,0.3,0.8,0.7,1,1.2c0.2,0.5,0.4,1,0.4,1.6
					c0,0.5-0.1,1.1-0.3,1.5s-0.5,0.9-0.9,1.3c-0.4,0.4-0.9,0.6-1.5,0.9c-0.6,0.2-1.2,0.3-2,0.3h-3.1V43.6z M43,50.6h1
					c0.4,0,0.7-0.1,1.1-0.2s0.6-0.3,0.9-0.6c0.2-0.3,0.4-0.6,0.6-1c0.1-0.4,0.2-0.8,0.2-1.3c0-0.4-0.1-0.8-0.2-1.2
					c-0.1-0.4-0.3-0.7-0.6-1c-0.2-0.3-0.5-0.5-0.9-0.6c-0.3-0.2-0.7-0.2-1.1-0.2h-1V50.6z"/>
				<path class="st0" d="M51.2,43.6h1.9v7.8h-1.9V43.6z"/>
				<path class="st0" d="M59.4,43.4l3.7,8h-2l-1-2.1h-3l-1,2.1h-1.3l3.8-8H59.4z M57.4,48.5h2.3L58.6,46L57.4,48.5z"/>
				<path class="st0" d="M64.7,43.6H66l4.4,5v-5h1.2v7.9h-0.8L65.9,46v5.4h-1.2V43.6z"/>
				<path class="st0" d="M3,55.8h1.2l4.4,5v-5h1.2v7.9H9l-4.8-5.5v5.4H3V55.8z"/>
				<path class="st0" d="M11.8,55.8h1.9v5c0,0.3,0,0.6,0.1,0.8c0.1,0.3,0.2,0.5,0.4,0.7c0.2,0.2,0.4,0.4,0.6,0.5
					c0.2,0.1,0.5,0.2,0.8,0.2c0.3,0,0.6-0.1,0.8-0.2c0.2-0.1,0.5-0.3,0.6-0.5c0.2-0.2,0.3-0.4,0.4-0.7s0.1-0.5,0.1-0.8v-5h1.2v5
					c0,0.4-0.1,0.8-0.2,1.1c-0.1,0.4-0.3,0.7-0.6,0.9s-0.7,0.5-1.1,0.6c-0.5,0.2-1,0.2-1.6,0.2c-0.6,0-1.1-0.1-1.5-0.2
					s-0.8-0.4-1.1-0.6c-0.3-0.3-0.5-0.6-0.7-0.9c-0.2-0.4-0.2-0.7-0.2-1.2V55.8z"/>
				<path class="st0" d="M27.5,55.8v0.7h-2.7v7.1h-1.9v-7.1h-2.7v-0.7H27.5z"/>
				<path class="st0" d="M28.8,55.8h2.9c0.5,0,0.9,0.1,1.3,0.2s0.7,0.3,0.9,0.4c0.3,0.2,0.4,0.4,0.6,0.7c0.1,0.3,0.2,0.5,0.2,0.9
					c0,0.2,0,0.4-0.1,0.6c-0.1,0.2-0.2,0.4-0.4,0.5s-0.3,0.3-0.6,0.4c-0.2,0.1-0.5,0.2-0.7,0.3l2.8,3.7h-2.1L31,60.1h-0.3v3.5h-1.9
					V55.8z M30.7,59.4h0.4c0.2,0,0.5,0,0.7-0.1c0.2-0.1,0.4-0.2,0.5-0.3s0.3-0.3,0.3-0.4c0.1-0.2,0.1-0.4,0.1-0.6
					c0-0.2,0-0.4-0.1-0.6s-0.2-0.3-0.3-0.4c-0.1-0.1-0.2-0.2-0.4-0.3c-0.2-0.1-0.3-0.1-0.5-0.1h-0.8V59.4z"/>
				<path class="st0" d="M36.5,55.8h1.9v7.8h-1.9V55.8z"/>
				<path class="st0" d="M46.9,55.8v0.7h-2.7v7.1h-1.9v-7.1h-2.7v-0.7H46.9z"/>
				<path class="st0" d="M54,55.8v0.7h-3.9V59h3.3v0.7h-3.3v3.1H54v0.8h-5.8v-7.8H54z"/>
				<path class="st0" d="M57.2,59.7c0,0.5,0.1,1,0.2,1.3s0.4,0.7,0.6,1c0.3,0.3,0.5,0.5,0.9,0.6s0.7,0.2,1,0.2c0.3,0,0.5,0,0.8-0.1
					c0.2-0.1,0.5-0.2,0.7-0.4s0.4-0.3,0.6-0.6c0.2-0.2,0.4-0.4,0.5-0.7l0.8,0.6c-0.2,0.3-0.4,0.5-0.6,0.8c-0.2,0.3-0.5,0.5-0.8,0.7
					c-0.3,0.2-0.6,0.4-1,0.5c-0.4,0.1-0.7,0.2-1.1,0.2c-0.7,0-1.3-0.1-1.9-0.3c-0.6-0.2-1.1-0.5-1.5-0.8c-0.4-0.4-0.7-0.8-1-1.3
					s-0.3-1.1-0.3-1.7c0-0.6,0.1-1.1,0.3-1.6s0.5-0.9,0.9-1.3c0.4-0.4,0.9-0.6,1.4-0.8c0.6-0.2,1.2-0.3,1.8-0.3
					c0.4,0,0.9,0.1,1.2,0.2s0.7,0.3,1,0.4c0.3,0.2,0.6,0.4,0.8,0.7c0.2,0.3,0.5,0.5,0.6,0.9l-0.8,0.6c-0.2-0.2-0.3-0.5-0.5-0.7
					c-0.2-0.2-0.4-0.4-0.6-0.5c-0.2-0.2-0.4-0.3-0.7-0.4c-0.2-0.1-0.5-0.1-0.8-0.1c-0.4,0-0.7,0.1-1,0.2s-0.6,0.3-0.9,0.6
					c-0.2,0.3-0.4,0.6-0.6,1C57.3,58.7,57.2,59.2,57.2,59.7z"/>
				<path class="st0" d="M66.8,59.9v3.7h-1.9v-7.8h1.9v3.4H70v-3.4h1.9v7.8H70v-3.7H66.8z"/>
			</g>
		</g>
		<g>
			<path class="st0" d="M22.1,30.9c-0.3-1.7-1.2-4.9-1.2-4.9s3.6,1,4.9,1.3c0-0.1-9.9-8.1-9.9-8.1S21.9,30.7,22.1,30.9z"/>
			<path class="st0" d="M12.2,30.2l9.4,4.2L19.7,33c0,0,2.3-0.9,2.5-1.3c0-0.1,0-0.4-0.1-0.8C22,30.8,12.2,30.2,12.2,30.2z"/>
			<path class="st0" d="M34.1,21.1l-8-9.7L31.9,29c0,0,0.2,0.7,0.4,1l-1.9-10.7L34.1,21.1z"/>
			<path class="st0" d="M31.9,29l-7.8-13.1c0,0,1.7,10.9,1.8,11.3c0.1,0,0.2,0,0.3,0c0.5-0.2,1.2-2.6,1.2-2.6l5,5.3
				C32.2,29.8,31.9,29,31.9,29z"/>
			<polygon class="st0" points="34.6,20.7 37.9,14.5 40.6,20.5 38.1,3.4 			"/>
			<path class="st0" d="M53.3,30.9c0.3-1.7,1.2-4.9,1.2-4.9s-3.7,0.9-5.1,1.1c0-0.1,10-7.9,10-7.9S53.5,30.7,53.3,30.9z"/>
			<path class="st0" d="M63.2,30.2l-9.4,4.2l1.9-1.4c0,0-2.3-0.9-2.5-1.3c0-0.1,0-0.4,0.1-0.8C53.4,30.8,63.2,30.2,63.2,30.2z"/>
			<path class="st0" d="M41.2,20.7l8-9.7l-5.8,17.5c0,0-0.2,0.7-0.4,1l1.9-10.7L41.2,20.7z"/>
			<path class="st0" d="M43.5,29l7.8-13.1c0,0-1.8,10.7-1.9,11.2c-0.1,0-0.2,0-0.3,0c-0.5-0.2-1.1-2.5-1.1-2.5l-5,5.3
				C43.2,29.8,43.5,29,43.5,29z"/>
		</g>
	</g>
</g>
</svg>
